<?xml version="1.0" encoding="UTF-8"?>
<svg width="34px" height="32px" viewBox="0 0 34 32" version="1.1" xmlns="http://www.w3.org/2000/svg" xmlns:xlink="http://www.w3.org/1999/xlink">
    <!-- Generator: Sketch 41.2 (35397) - http://www.bohemiancoding.com/sketch -->
    <title>Icon</title>
    <desc>Created with Sketch.</desc>
    <defs></defs>
    <g id="Page-1" stroke="none" stroke-width="1" fill="none" fill-rule="evenodd">
        <g id="Artboard-1" transform="translate(-523.000000, -391.000000)" fill="#FFFFFF">
            <path d="M529.884,399 L524,399 C523.448,399 523,398.552 523,398 L523,392 C523,391.448 523.448,391 524,391 L529.884,391 C530.436,391 530.884,391.448 530.884,392 L530.884,398 C530.884,398.552 530.436,399 529.884,399 Z M556,399 L537.304,399 C536.752,399 536.304,398.552 536.304,398 L536.304,392 C536.304,391.448 536.752,391 537.304,391 L556,391 C556.552,391 557,391.448 557,392 L557,398 C557,398.552 556.552,399 556,399 Z M529.884,411 L524,411 C523.448,411 523,410.552 523,410 L523,404 C523,403.448 523.448,403 524,403 L529.884,403 C530.436,403 530.884,403.448 530.884,404 L530.884,410 C530.884,410.552 530.436,411 529.884,411 Z M556,411 L537.304,411 C536.752,411 536.304,410.552 536.304,410 L536.304,404 C536.304,403.448 536.752,403 537.304,403 L556,403 C556.552,403 557,403.448 557,404 L557,410 C557,410.552 556.552,411 556,411 Z M529.884,423 L524,423 C523.448,423 523,422.552 523,422 L523,416 C523,415.448 523.448,415 524,415 L529.884,415 C530.436,415 530.884,415.448 530.884,416 L530.884,422 C530.884,422.552 530.436,423 529.884,423 Z M556,423 L537.304,423 C536.752,423 536.304,422.552 536.304,422 L536.304,416 C536.304,415.448 536.752,415 537.304,415 L556,415 C556.552,415 557,415.448 557,416 L557,422 C557,422.552 556.552,423 556,423 Z" id="Icon"></path>
        </g>
    </g>
</svg>